<?xml version="1.0" encoding="UTF-8"?>
<svg version="1.1" xmlns="http://www.w3.org/2000/svg" width="512" height="512">
<path d="M0 0 C0.7850248 -0.00235223 1.5700496 -0.00470446 2.37886304 -0.00712797 C5.02533682 -0.01381704 7.6717615 -0.01335977 10.31824303 -0.01294994 C12.22847645 -0.01624862 14.13870918 -0.0199742 16.04894102 -0.02409142 C21.31092878 -0.03411903 26.57290513 -0.03782944 31.83490109 -0.04048073 C37.50515494 -0.04438151 43.17539974 -0.05395998 48.84564781 -0.0626936 C62.54529589 -0.08246402 76.24494472 -0.09252478 89.9446035 -0.10142139 C96.39368842 -0.10580318 102.8427725 -0.11117026 109.29185677 -0.11641026 C130.7258859 -0.13342282 152.15991371 -0.14794245 173.59394836 -0.155159 C174.98012565 -0.15563375 176.36630294 -0.15610964 177.75248023 -0.15658666 C178.43989776 -0.15682303 179.12731528 -0.15705941 179.83556364 -0.15730295 C183.31834602 -0.15850414 186.80112839 -0.1597196 190.28391075 -0.16094494 C191.32066256 -0.16130516 191.32066256 -0.16130516 192.37835885 -0.16167267 C214.78659379 -0.16956522 237.19477579 -0.19299619 259.6029876 -0.22550088 C283.29525854 -0.25980543 306.98748912 -0.27950957 330.67978704 -0.28280324 C343.59433638 -0.28496969 356.50880791 -0.2937382 369.42333412 -0.31926441 C380.42061666 -0.34095071 391.41780249 -0.34903198 402.41510399 -0.33929763 C408.0264346 -0.33474702 413.63756559 -0.33668361 419.24886894 -0.35605907 C424.38735436 -0.37364877 429.52549391 -0.37272694 434.66398279 -0.35716178 C436.52136818 -0.35477936 438.37877725 -0.35914208 440.23612638 -0.37099043 C452.89608334 -0.44673809 463.01745018 0.27864839 472.60178185 9.34125233 C480.11919015 17.32849866 480.58426428 25.03549005 480.55670738 35.48805714 C480.5612385 36.74456772 480.56576961 38.0010783 480.57043803 39.29566497 C480.58265561 42.7764446 480.58240904 46.25712804 480.58004928 49.73792422 C480.5796408 53.49468724 480.59068323 57.25141955 480.60016441 61.00816822 C480.61676849 68.36577094 480.62227369 75.72334161 480.62338917 83.0809615 C480.62433991 89.06234428 480.62845151 95.0437165 480.63479042 101.02509594 C480.6524011 117.98802019 480.66162955 134.95091915 480.66012947 151.91385261 C480.6600096 153.28520917 480.6600096 153.28520917 480.65988731 154.68426991 C480.65980555 155.59962545 480.65972379 156.514981 480.65963955 157.45807459 C480.65882667 172.29233491 480.67796538 187.12649368 480.70616405 201.96072463 C480.73489801 217.19692248 480.74870406 232.43307081 480.74697649 247.66929644 C480.74631278 256.22147389 480.75179708 264.77354488 480.7733326 273.3256979 C480.79155113 280.60720705 480.79588623 287.88856148 480.78231375 295.17008356 C480.77578748 298.8836622 480.77565424 302.59694408 480.79302025 306.31049442 C480.81167133 310.34036512 480.79918773 314.36954989 480.78375816 318.39943409 C480.79404529 319.56753787 480.80433242 320.73564166 480.81493127 321.93914253 C480.7308416 331.87808317 478.05700874 339.03385755 471.28928185 346.34125233 C464.39601945 352.52095436 457.61209992 354.2867752 448.57856369 354.26844215 C447.79353889 354.27079438 447.00851409 354.27314661 446.19970065 354.27557012 C443.55322687 354.2822592 440.90680219 354.28180193 438.26032066 354.2813921 C436.35008724 354.28469078 434.43985451 354.28841635 432.52962267 354.29253358 C427.26763491 354.30256119 422.00565856 354.30627159 416.7436626 354.30892289 C411.07340875 354.31282366 405.40316395 354.32240213 399.73291588 354.33113575 C386.0332678 354.35090618 372.33361897 354.36096693 358.63396019 354.36986354 C352.18487527 354.37424534 345.73579119 354.37961241 339.28670692 354.38485241 C317.85267779 354.40186497 296.41864998 354.4163846 274.98461533 354.42360115 C273.59843804 354.42407591 272.21226075 354.4245518 270.82608346 354.42502881 C270.13866593 354.42526519 269.45124841 354.42550156 268.74300005 354.4257451 C265.26021767 354.4269463 261.7774353 354.42816175 258.29465294 354.42938709 C257.25790113 354.42974732 257.25790113 354.42974732 256.20020484 354.43011482 C233.7919699 354.43800737 211.38378791 354.46143835 188.97557609 354.49394304 C165.28330515 354.52824759 141.59107457 354.54795173 117.89877665 354.55124539 C104.98422731 354.55341184 92.06975578 354.56218036 79.15522957 354.58770657 C68.15794703 354.60939286 57.1607612 354.61747413 46.1634597 354.60773978 C40.55212909 354.60318917 34.9409981 354.60512576 29.32969475 354.62450123 C24.19120933 354.64209092 19.05306978 354.6411691 13.9145809 354.62560394 C12.05719551 354.62322151 10.19978644 354.62758423 8.34243731 354.63943259 C-4.31751965 354.71518024 -14.43888649 353.98979376 -24.02321815 344.92718983 C-31.54062646 336.9399435 -32.00570059 329.2329521 -31.97814369 318.78038502 C-31.9826748 317.52387443 -31.98720592 316.26736385 -31.99187434 314.97277719 C-32.00409192 311.49199755 -32.00384535 308.01131412 -32.00148559 304.53051794 C-32.00107711 300.77375491 -32.01211954 297.01702261 -32.02160072 293.26027393 C-32.0382048 285.90267121 -32.04371 278.54510054 -32.04482548 271.18748065 C-32.04577622 265.20609787 -32.04988782 259.22472565 -32.05622673 253.24334621 C-32.07383741 236.28042196 -32.08306586 219.317523 -32.08156578 202.35458954 C-32.08148587 201.44035184 -32.08140596 200.52611413 -32.08132362 199.58417225 C-32.08124186 198.6688167 -32.0811601 197.75346116 -32.08107586 196.81036756 C-32.08026298 181.97610725 -32.09940169 167.14194847 -32.12760036 152.30771752 C-32.15633432 137.07151968 -32.17014037 121.83537134 -32.1684128 106.59914571 C-32.16774909 98.04696827 -32.17323339 89.49489728 -32.19476891 80.94274426 C-32.21298744 73.66123511 -32.21732254 66.37988067 -32.20375006 59.09835859 C-32.19722379 55.38477995 -32.19709055 51.67149807 -32.21445656 47.95794773 C-32.23310764 43.92807704 -32.22062404 39.89889226 -32.20519447 35.86900806 C-32.2154816 34.70090428 -32.22576873 33.5328005 -32.23636758 32.32929963 C-32.15227791 22.39035898 -29.47844505 15.2345846 -22.71071815 7.92718983 C-15.81745576 1.7474878 -9.03353623 -0.01833305 0 0 Z " fill="#E6E7E2" transform="translate(31.710718154907227,78.86577892303467)"/>
<path d="M0 0 C1.60488281 0.00483398 1.60488281 0.00483398 3.2421875 0.00976562 C4.35335937 0.01814453 5.46453125 0.02652344 6.609375 0.03515625 C8.29933594 0.04192383 8.29933594 0.04192383 10.0234375 0.04882812 C12.80213717 0.06060228 15.58072909 0.07704785 18.359375 0.09765625 C16.1093848 1.23619825 13.86652748 2.31319124 11.5546875 3.32421875 C2.9769679 7.23111903 -1.27139442 10.95628337 -5.19036961 19.46069527 C-7.26132536 25.09125623 -7.05903896 30.67479818 -7.02830505 36.60934448 C-7.03369059 37.85869125 -7.03907613 39.10803801 -7.04462487 40.39524376 C-7.05903743 43.84681996 -7.054848 47.29815653 -7.04745805 50.74974561 C-7.04271822 54.47855173 -7.05524345 58.20730661 -7.06547546 61.93609619 C-7.08265313 69.23495729 -7.08350559 76.53373226 -7.07826256 83.83260833 C-7.07421754 89.76674211 -7.07566836 95.70085049 -7.08101082 101.63498306 C-7.08213345 102.90291715 -7.08213345 102.90291715 -7.08327876 104.19646607 C-7.08481028 105.91379849 -7.08634863 107.6311309 -7.08789373 109.34846331 C-7.10161515 125.4458647 -7.0961837 141.54321747 -7.08470852 157.64061774 C-7.07477751 172.35768261 -7.08771514 187.07462173 -7.11164271 201.79166721 C-7.1360431 216.91380779 -7.14563921 232.03588983 -7.13898998 247.1580497 C-7.13549972 255.64371213 -7.13771701 264.12927787 -7.15524101 272.61492538 C-7.16997479 279.83890763 -7.17058317 287.06272511 -7.1531701 294.28670417 C-7.14466715 297.97003648 -7.14249295 301.6530746 -7.15782166 305.33639145 C-7.17425669 309.33516548 -7.15950019 313.33323203 -7.14183044 317.33200073 C-7.15143545 318.48804554 -7.16104046 319.64409034 -7.17093652 320.83516681 C-7.09219863 329.50695767 -5.24248846 336.15769159 -0.453125 343.41015625 C4.95256308 348.57559152 11.13583923 351.4070415 18.359375 353.09765625 C18.359375 353.42765625 18.359375 353.75765625 18.359375 354.09765625 C14.56797654 354.21537342 10.77705765 354.28540823 6.984375 354.34765625 C5.92347656 354.38117188 4.86257812 354.4146875 3.76953125 354.44921875 C-6.61639538 354.57665343 -14.36475617 352.0659173 -21.953125 344.890625 C-29.47053331 336.90337867 -29.93560744 329.19638728 -29.90805054 318.74382019 C-29.91258165 317.48730961 -29.91711276 316.23079902 -29.92178118 314.93621236 C-29.93399877 311.45543272 -29.93375219 307.97474929 -29.93139243 304.49395311 C-29.93098395 300.73719009 -29.94202638 296.98045778 -29.95150757 293.22370911 C-29.96811165 285.86610639 -29.97361684 278.50853571 -29.97473232 271.15091582 C-29.97568307 265.16953304 -29.97979466 259.18816083 -29.98613358 253.20678139 C-30.00374426 236.24385713 -30.0129727 219.28095818 -30.01147263 202.31802472 C-30.01139272 201.40378701 -30.0113128 200.4895493 -30.01123047 199.54760742 C-30.01114871 198.63225188 -30.01106695 197.71689633 -30.01098271 196.77380273 C-30.01016982 181.93954242 -30.02930853 167.10538364 -30.0575072 152.2711527 C-30.08624117 137.03495485 -30.10004722 121.79880651 -30.09831965 106.56258088 C-30.09765593 98.01040344 -30.10314024 89.45833245 -30.12467575 80.90617943 C-30.14289428 73.62467028 -30.14722939 66.34331585 -30.1336569 59.06179377 C-30.12713063 55.34821513 -30.12699739 51.63493324 -30.1443634 47.9213829 C-30.16301448 43.89151221 -30.15053089 39.86232743 -30.13510132 35.83244324 C-30.14538844 34.66433945 -30.15567557 33.49623567 -30.16627443 32.2927348 C-30.08218475 22.35379415 -27.4083519 15.19801978 -20.640625 7.890625 C-14.52605343 2.40900713 -8.12276406 -0.04320619 0 0 Z " fill="#CACAC6" transform="translate(29.640625,78.90234375)"/>
<path d="M0 0 C7.321875 -0.0825 14.64375 -0.165 22.1875 -0.25 C24.47067139 -0.28641602 26.75384277 -0.32283203 29.10620117 -0.36035156 C54.23756876 -0.59742338 54.23756876 -0.59742338 64 8 C68.21333555 13.52885298 67.60483302 19.33843628 67 26 C65.29353656 31.30899738 62.32425578 33.73278452 58 37 C58.53109375 37.27972656 59.0621875 37.55945313 59.609375 37.84765625 C64.96288982 40.8858736 67.37576006 43.43661133 70 49 C70.33 49.66 70.66 50.32 71 51 C71.93499742 59.44169097 70.89005564 65.98102831 66 73 C60.885529 78.99329559 53.53265114 80.99790232 46 82 C42.44998058 82.13368646 38.90366193 82.11653616 35.3515625 82.09765625 C34.45332764 82.09664917 33.55509277 82.09564209 32.62963867 82.09460449 C29.29474601 82.08939768 25.95987164 82.07543651 22.625 82.0625 C15.15875 82.041875 7.6925 82.02125 0 82 C0 54.94 0 27.88 0 0 Z " fill="#047091" transform="translate(146,179)"/>
<path d="M0 0 C7.26 0 14.52 0 22 0 C28.05243892 7.58294072 28.05243892 7.58294072 29.55859375 11.43359375 C32.22298617 17.73624383 35.59297216 23.60383348 38.96560669 29.54354858 C41.19644181 33.49336737 43.36765275 37.47651086 45.5546875 41.45068359 C46.62850946 43.34474591 47.79226013 45.1883902 49 47 C49.33 31.49 49.66 15.98 50 0 C56.93 0 63.86 0 71 0 C71 27.06 71 54.12 71 82 C63.74 82 56.48 82 49 82 C45.3194111 78.05312469 44.58144879 76.76373637 43 72 C41.9032253 69.97154931 40.76712486 67.96399051 39.59765625 65.9765625 C38.41770557 63.86024696 37.23933739 61.74304836 36.0625 59.625 C31.92556482 52.18493053 27.73470868 44.78977985 23.38061523 37.47412109 C22 35 22 35 21 32 C20.67 48.5 20.34 65 20 82 C13.4 82 6.8 82 0 82 C0 54.94 0 27.88 0 0 Z " fill="#077192" transform="translate(308,179)"/>
<path d="M0 0 C6.93 0 13.86 0 21 0 C21.33 9.9 21.66 19.8 22 30 C28.95200692 22.33047833 28.95200692 22.33047833 35.5625 14.4375 C37.02429885 12.61096382 38.5063246 10.80056216 40 9 C40.78383057 7.84987427 40.78383057 7.84987427 41.58349609 6.67651367 C44.38671434 2.91706435 46.39968668 0.37480589 51.08032227 -0.72143555 C54.59455595 -0.88475284 57.98967173 -0.78816396 61.5 -0.5625 C62.70398438 -0.52189453 63.90796875 -0.48128906 65.1484375 -0.43945312 C68.10318406 -0.33392646 71.04944217 -0.18648189 74 0 C69.96785637 5.70213483 65.57459633 10.64831611 60.5625 15.5 C59.23793978 16.80562637 57.91500193 18.11290084 56.59375 19.421875 C55.97113281 20.03869141 55.34851563 20.65550781 54.70703125 21.29101562 C48.49445791 26.76124692 48.49445791 26.76124692 46 34 C47.3249056 36.37639871 47.3249056 36.37639871 49.1875 39 C49.91710937 40.06734375 50.64671875 41.1346875 51.3984375 42.234375 C52.0167041 43.12866211 52.0167041 43.12866211 52.64746094 44.04101562 C54.11940583 46.17294447 55.57996444 48.31238451 57.0390625 50.453125 C61.43387778 56.89611257 65.84092308 63.33046242 70.28125 69.7421875 C70.79260498 70.48178711 71.30395996 71.22138672 71.83081055 71.98339844 C72.80157251 73.38651657 73.77432026 74.78826336 74.74926758 76.18847656 C78 80.88865392 78 80.88865392 78 82 C55.09235164 84.84009204 55.09235164 84.84009204 48.80273438 80.47509766 C45.23267418 76.35223402 43.18773126 71.47705555 41.11816406 66.47705078 C39.30832418 62.46774172 36.82853506 58.96763947 34.3125 55.375 C33.47352355 54.13398492 32.63610178 52.89191629 31.80078125 51.6484375 C31.20652344 50.77445313 30.61226563 49.90046875 30 49 C28.85373678 49.97866338 27.70800212 50.95794587 26.5625 51.9375 C25.92441406 52.48277344 25.28632813 53.02804688 24.62890625 53.58984375 C22.21810009 55.4790932 22.21810009 55.4790932 21.79467773 58.50024414 C21.75802002 59.58426514 21.7213623 60.66828613 21.68359375 61.78515625 C21.64169922 62.95498047 21.59980469 64.12480469 21.55664062 65.33007812 C21.51732422 66.56177734 21.47800781 67.79347656 21.4375 69.0625 C21.39431641 70.29806641 21.35113281 71.53363281 21.30664062 72.80664062 C21.20015889 75.87094841 21.09953935 78.93545885 21 82 C14.07 82 7.14 82 0 82 C0 54.94 0 27.88 0 0 Z " fill="#036F91" transform="translate(393,179)"/>
<path d="M0 0 C7.26 0 14.52 0 22 0 C25.88437359 9.15981201 29.47623479 18.40488753 32.95703125 27.72265625 C33.51033674 29.20049546 34.06369778 30.67831388 34.61711121 32.15611267 C35.76582294 35.22545667 36.91265623 38.29549495 38.05834961 41.3659668 C39.52735638 45.30192014 41.00302381 49.23534115 42.48027515 53.16820621 C43.62026775 56.20636076 44.7558323 59.24615595 45.89014244 62.28643608 C46.43279201 63.73871625 46.97704303 65.19039909 47.52292824 66.64146614 C48.28141589 68.65909635 49.03368839 70.67893773 49.78442383 72.69946289 C50.21346512 73.8468544 50.64250641 74.99424591 51.08454895 76.17640686 C52 79 52 79 52 82 C44.74 82 37.48 82 30 82 C26 70.375 26 70.375 26 67 C16.43 67.33 6.86 67.66 -3 68 C-4.65 72.62 -6.3 77.24 -8 82 C-15.26 82 -22.52 82 -30 82 C-26.62505808 70.75019359 -26.62505808 70.75019359 -25.14990234 66.83935547 C-24.81880463 65.95657928 -24.48770691 65.0738031 -24.14657593 64.16427612 C-23.62155991 62.77971725 -23.62155991 62.77971725 -23.0859375 61.3671875 C-22.7119986 60.37284698 -22.33805969 59.37850647 -21.95278931 58.35403442 C-20.76330848 55.19317217 -19.56928135 52.03405115 -18.375 48.875 C-17.59734651 46.81131461 -16.82000064 44.74751327 -16.04296875 42.68359375 C-14.49073766 38.56161471 -12.93684745 34.44026681 -11.38183594 30.31933594 C-7.57228963 20.21875214 -3.78707686 10.10902465 0 0 Z " fill="#047091" transform="translate(250,179)"/>
<path d="M0 0 C8.6625 -0.12375 8.6625 -0.12375 17.5 -0.25 C20.20993164 -0.30462402 20.20993164 -0.30462402 22.97460938 -0.36035156 C24.43097755 -0.37205057 25.88735897 -0.38223952 27.34375 -0.390625 C28.44831543 -0.4213208 28.44831543 -0.4213208 29.57519531 -0.45263672 C36.31202552 -0.4570982 41.27150461 1.81720369 46.5 6 C48.9265994 10.8531988 48.73408292 15.68869413 48 21 C46.94565883 23.53238953 45.83856448 24.89105838 44 27 C43.34 27.99 42.68 28.98 42 30 C42.804375 30.928125 43.60875 31.85625 44.4375 32.8125 C47.86931029 36.7722811 48.17299136 40.2929533 48.5 45.4375 C48.73770951 49.16869039 49.08926348 52.35705391 50 56 C45.38 56 40.76 56 36 56 C33.77905975 51.55811949 33.68762081 48.60906203 33.5390625 43.75390625 C32.82614893 40.11184782 31.74115956 38.50164076 29 36 C25.51391931 35.18229622 25.51391931 35.18229622 21.75 35.1875 C19.5225 35.125625 17.295 35.06375 15 35 C15 41.93 15 48.86 15 56 C10.05 56 5.1 56 0 56 C0 37.52 0 19.04 0 0 Z " fill="#68CDE6" transform="translate(99,278)"/>
<path d="M0 0 C8.6625 -0.12375 8.6625 -0.12375 17.5 -0.25 C20.20993164 -0.30462402 20.20993164 -0.30462402 22.97460938 -0.36035156 C24.43097755 -0.37205057 25.88735897 -0.38223952 27.34375 -0.390625 C28.44831543 -0.4213208 28.44831543 -0.4213208 29.57519531 -0.45263672 C35.14051813 -0.45632236 39.34337781 0.92019761 44 4 C47.36065034 7.52868285 48.25917122 10.24932124 48.4375 15 C48.17961818 21.13390332 45.80921165 25.28383319 42 30 C42.804375 30.928125 43.60875 31.85625 44.4375 32.8125 C47.19937301 35.99927655 48.06699307 38.8606719 48.53515625 43.01171875 C48.66567383 44.14770508 48.66567383 44.14770508 48.79882812 45.30664062 C48.9293457 46.48516602 48.9293457 46.48516602 49.0625 47.6875 C49.15337891 48.48478516 49.24425781 49.28207031 49.33789062 50.10351562 C49.56147277 52.068685 49.78111684 54.0343017 50 56 C45.38 56 40.76 56 36 56 C34.50786476 51.09726993 33.49847172 46.30867856 32.7578125 41.234375 C31.74985957 38.26247254 30.76610996 37.46576259 28 36 C24.73124959 35.42385742 24.73124959 35.42385742 21.25 35.3125 C19.1875 35.209375 17.125 35.10625 15 35 C15 41.93 15 48.86 15 56 C10.05 56 5.1 56 0 56 C0 37.52 0 19.04 0 0 Z " fill="#68CDE6" transform="translate(423,278)"/>
<path d="M0 0 C4.95 0 9.9 0 15 0 C18.10624295 3.28957355 19.24283448 5.0453407 21 9 C22.13309974 11.04860421 23.27687052 13.09133238 24.4296875 15.12890625 C25.58344126 17.27058205 26.7309003 19.41565141 27.875 21.5625 C29.89625 25.336875 31.9175 29.11125 34 33 C34.33 22.11 34.66 11.22 35 0 C39.29 0 43.58 0 48 0 C48 18.48 48 36.96 48 56 C43.05 56 38.1 56 33 56 C31.30230469 52.91205078 31.30230469 52.91205078 29.5703125 49.76171875 C28.47183674 47.7658556 27.37290352 45.77024499 26.27392578 43.7746582 C25.51107699 42.38885406 24.7487032 41.00278834 23.98681641 39.61645508 C22.89090084 37.62251744 21.79327414 35.62953028 20.6953125 33.63671875 C20.3556546 33.01786301 20.0159967 32.39900726 19.66604614 31.76139832 C18.19606763 29.09684553 16.68958559 26.53437838 15 24 C14.67 34.56 14.34 45.12 14 56 C9.38 56 4.76 56 0 56 C0 37.52 0 19.04 0 0 Z " fill="#67CDE6" transform="translate(211,278)"/>
<path d="M0 0 C14.85 0 29.7 0 45 0 C45 3.63 45 7.26 45 11 C35.1 11 25.2 11 15 11 C15 14.3 15 17.6 15 21 C23.91 21 32.82 21 42 21 C42 24.63 42 28.26 42 32 C33.09 32 24.18 32 15 32 C15 35.63 15 39.26 15 43 C25.23 43 35.46 43 46 43 C46 47.29 46 51.58 46 56 C30.82 56 15.64 56 0 56 C0 37.52 0 19.04 0 0 Z " fill="#69CDE6" transform="translate(369,278)"/>
<path d="M0 0 C4.0462316 2.60049941 7.60051934 5.68983368 8.7734375 10.5390625 C9.02646483 12.47437967 9.14918024 14.42581793 9.25 16.375 C4.3 16.375 -0.65 16.375 -5.75 16.375 C-6.41 14.725 -7.07 13.075 -7.75 11.375 C-11.67296433 10.06734522 -14.61002433 10.1778583 -18.75 10.375 C-20.96127308 12.1368044 -20.96127308 12.1368044 -20.83984375 14.34765625 C-19.82959718 16.74535756 -19.82959718 16.74535756 -16.50390625 17.68359375 C-15.11049321 18.07345364 -13.71301051 18.44896054 -12.3125 18.8125 C5.63913149 23.95751588 5.63913149 23.95751588 10.25 31.375 C12.00730828 34.88961656 11.78833479 38.53936463 11.25 42.375 C8.98817093 47.94182931 5.62865185 51.63294219 0.25 54.375 C-7.94198861 57.24938197 -17.59955893 58.04836635 -25.75 54.6875 C-31.6435993 51.6111707 -35.29464524 47.57800149 -37.75 41.375 C-37.75 39.725 -37.75 38.075 -37.75 36.375 C-32.8 36.375 -27.85 36.375 -22.75 36.375 C-22.09 38.025 -21.43 39.675 -20.75 41.375 C-18.89362178 43.65527649 -18.89362178 43.65527649 -16 43.640625 C-14.39125 43.63289063 -14.39125 43.63289063 -12.75 43.625 C-11.6775 43.63015625 -10.605 43.6353125 -9.5 43.640625 C-6.60637822 43.65527649 -6.60637822 43.65527649 -4.75 41.375 C-4.60231087 38.85750172 -4.60231087 38.85750172 -5.75 36.375 C-9.42882296 33.78988116 -13.3100081 32.98191978 -17.625 32 C-24.40396243 30.39999644 -30.09293104 27.66651024 -34.75 22.375 C-36.58336946 16.87489161 -36.60175114 11.42694593 -34.375 6.0625 C-25.88727305 -2.62731568 -11.2454819 -5.06688063 0 0 Z " fill="#69CDE6" transform="translate(303.75,278.625)"/>
<path d="M0 0 C1.39456452 0.00667256 2.78911118 0.01863093 4.18359375 0.03515625 C4.89451172 0.03966797 5.60542969 0.04417969 6.33789062 0.04882812 C8.09899388 0.06064761 9.86005411 0.07858362 11.62109375 0.09765625 C14.38397545 6.14810016 16.89605768 12.25014477 19.22265625 18.48046875 C19.54519379 19.3389743 19.86773132 20.19747986 20.20004272 21.08200073 C20.87526726 22.88147403 21.54913117 24.68145843 22.22167969 26.48193359 C23.24655355 29.22388641 24.27728445 31.96358714 25.30859375 34.703125 C25.96779946 36.46210788 26.62666534 38.22121816 27.28515625 39.98046875 C27.59039215 40.79105743 27.89562805 41.60164612 28.21011353 42.4367981 C28.49736298 43.20805023 28.78461243 43.97930237 29.08056641 44.77392578 C29.33053375 45.44183136 29.5805011 46.10973694 29.83804321 46.79788208 C30.88098836 49.86095169 31.73216266 52.98639742 32.62109375 56.09765625 C27.67109375 56.09765625 22.72109375 56.09765625 17.62109375 56.09765625 C14.62109375 49.47265625 14.62109375 49.47265625 14.62109375 46.09765625 C7.69109375 46.09765625 0.76109375 46.09765625 -6.37890625 46.09765625 C-7.03890625 49.06765625 -7.69890625 52.03765625 -8.37890625 55.09765625 C-9.37890625 56.09765625 -9.37890625 56.09765625 -12.7578125 56.1953125 C-14.15237702 56.18863994 -15.54692368 56.17668157 -16.94140625 56.16015625 C-18.0077832 56.15338867 -18.0077832 56.15338867 -19.09570312 56.14648438 C-20.85680638 56.13466489 -22.61786661 56.11672888 -24.37890625 56.09765625 C-22.19914509 49.40651207 -19.8398691 42.79256541 -17.40234375 36.19140625 C-16.84626938 34.68253845 -16.84626938 34.68253845 -16.27896118 33.14318848 C-15.50150002 31.03528739 -14.72328091 28.92766571 -13.94433594 26.8203125 C-12.74758661 23.58054812 -11.55535053 20.33914512 -10.36328125 17.09765625 C-9.60574268 15.04547178 -8.84793976 12.99338486 -8.08984375 10.94140625 C-7.73256195 9.96860718 -7.37528015 8.99580811 -7.00717163 7.99353027 C-6.67657745 7.10170044 -6.34598328 6.20987061 -6.00537109 5.29101562 C-5.56927017 4.10928772 -5.56927017 4.10928772 -5.12435913 2.90368652 C-3.83037275 -0.23129173 -3.70487699 0.10707737 0 0 Z " fill="#69CDE6" transform="translate(174.37890625,277.90234375)"/>
<path d="M0 0 C29.04 0 58.08 0 88 0 C88 5.94 88 11.88 88 18 C58.96 18 29.92 18 0 18 C0 12.06 0 6.12 0 0 Z " fill="#D92E2E" transform="translate(45,243)"/>
<path d="M0 0 C29.04 0 58.08 0 88 0 C88 5.94 88 11.88 88 18 C58.96 18 29.92 18 0 18 C0 12.06 0 6.12 0 0 Z " fill="#D92E2E" transform="translate(45,211)"/>
<path d="M0 0 C29.04 0 58.08 0 88 0 C88 5.94 88 11.88 88 18 C58.96 18 29.92 18 0 18 C0 12.06 0 6.12 0 0 Z " fill="#D92E2E" transform="translate(45,179)"/>
<path d="M0 0 C13.53 0 27.06 0 41 0 C41 3.63 41 7.26 41 11 C32.09 11 23.18 11 14 11 C14 14.96 14 18.92 14 23 C21.59 23 29.18 23 37 23 C37 26.63 37 30.26 37 34 C29.41 34 21.82 34 14 34 C14 40.93 14 47.86 14 55 C9.38 55 4.76 55 0 55 C0 36.85 0 18.7 0 0 Z " fill="#66CDE6" transform="translate(322,278)"/>
<path d="M0 0 C15.84 0 31.68 0 48 0 C48 3.96 48 7.92 48 12 C42.39 12 36.78 12 31 12 C31 26.19 31 40.38 31 55 C26.38 55 21.76 55 17 55 C17 40.81 17 26.62 17 12 C11.39 12 5.78 12 0 12 C0 8.04 0 4.08 0 0 Z " fill="#66CDE6" transform="translate(45,278)"/>
<path d="M0 0 C3.37548805 -0.08122832 6.74900518 -0.14061118 10.125 -0.1875 C11.55199219 -0.22520508 11.55199219 -0.22520508 13.0078125 -0.26367188 C18.4185834 -0.32003407 22.37940796 -0.16650796 27 3 C29.33909307 6.5086396 29.41291057 7.87089433 29 12 C27.64392381 15.14038696 26.79517112 16.60913741 23.7043457 18.12841797 C20.924728 19.02425937 18.8258993 19.23099263 15.91796875 19.1953125 C14.98662109 19.18886719 14.05527344 19.18242187 13.09570312 19.17578125 C12.13599609 19.15902344 11.17628906 19.14226562 10.1875 19.125 C9.20845703 19.11597656 8.22941406 19.10695312 7.22070312 19.09765625 C4.81369652 19.07417326 2.40681636 19.03830477 0 19 C0 12.73 0 6.46 0 0 Z " fill="#DEE3DF" transform="translate(167,225)"/>
<path d="M0 0 C3.2508878 -0.10796306 6.49819179 -0.18729295 9.75 -0.25 C10.67039063 -0.28351563 11.59078125 -0.31703125 12.5390625 -0.3515625 C19.34620696 -0.45021677 19.34620696 -0.45021677 22.609375 1.796875 C24.65618491 5.03957385 24.53576461 7.2496477 24 11 C22.609375 13.203125 22.609375 13.203125 20 15 C16.57088235 15.49247966 13.20508682 15.37581549 9.75 15.25 C8.81414062 15.23195312 7.87828125 15.21390625 6.9140625 15.1953125 C4.60893562 15.14826909 2.30433646 15.07652778 0 15 C0 10.05 0 5.1 0 0 Z " fill="#E5E7E2" transform="translate(168,196)"/>
<path d="M0 0 C2.25935747 3.38903621 3.32772088 6.77253086 4.5 10.625 C4.72067139 11.33978516 4.94134277 12.05457031 5.16870117 12.79101562 C6.69881987 17.81960684 7.98633828 22.83954032 9 28 C3.06 28 -2.88 28 -9 28 C-7.26172449 21.41285071 -5.39050101 14.88179297 -3.375 8.375 C-3.15690674 7.66408203 -2.93881348 6.95316406 -2.71411133 6.22070312 C-1.11975531 1.11975531 -1.11975531 1.11975531 0 0 Z " fill="#DCE2DF" transform="translate(261,202)"/>
<path d="M0 0 C2.22808159 -0.10853983 4.45769932 -0.18583307 6.6875 -0.25 C7.92886719 -0.29640625 9.17023438 -0.3428125 10.44921875 -0.390625 C14.58163233 0.06398595 16.1982052 0.96784731 19 4 C19 7.625 19 7.625 18 11 C14.31912647 13.45391569 11.55644412 13.22802759 7.3125 13.125 C6.2596582 13.11146484 6.2596582 13.11146484 5.18554688 13.09765625 C3.45688475 13.07413704 1.72839855 13.03826713 0 13 C0 8.71 0 4.42 0 0 Z " fill="#E2E7E3" transform="translate(438,289)"/>
<path d="M0 0 C2.22808159 -0.10853983 4.45769932 -0.18583307 6.6875 -0.25 C7.92886719 -0.29640625 9.17023438 -0.3428125 10.44921875 -0.390625 C14.58163233 0.06398595 16.1982052 0.96784731 19 4 C19 7.625 19 7.625 18 11 C14.31912647 13.45391569 11.55644412 13.22802759 7.3125 13.125 C6.2596582 13.11146484 6.2596582 13.11146484 5.18554688 13.09765625 C3.45688475 13.07413704 1.72839855 13.03826713 0 13 C0 8.71 0 4.42 0 0 Z " fill="#E2E7E3" transform="translate(114,289)"/>
<path d="M0 0 C2 1 2 1 3.2890625 4.52734375 C3.74228263 5.99497717 4.18724847 7.46517872 4.625 8.9375 C4.85445312 9.67935547 5.08390625 10.42121094 5.3203125 11.18554688 C7 16.69952102 7 16.69952102 7 19 C2.71 19 -1.58 19 -6 19 C-4.29446483 12.50272314 -2.47390635 6.2436684 0 0 Z " fill="#DCE5E3" transform="translate(178,294)"/>
</svg>
